<svg fill="#43C6AC" width="60" height="60" xmlns="http://www.w3.org/2000/svg" viewBox="0 0 32 32">
  <path d="M29.9,19.5l-4-7C25.7,12.2,25.4,12,25,12H17c-0.4,0-0.7,0.2-0.9,0.5l-4,7c-0.2,0.3-0.2,0.7,0,1l4,7c0.2,0.3,0.5,0.5,0.9,0.5
  H25c0.4,0,0.7-0.2,0.9-0.5l4-7C30.1,20.2,30.1,19.8,29.9,19.5z M21,25c-2.8,0-5-2.2-5-5s2.2-5,5-5s5,2.2,5,5S23.8,25,21,25z"/>
  <path d="M15.6,9.5l-2.9-5C12.6,4.2,12.2,4,11.9,4H6.1C5.8,4,5.4,4.2,5.2,4.5l-2.9,5c-0.2,0.3-0.2,0.7,0,1l2.9,5
  C5.4,15.8,5.8,16,6.1,16h5.8c0.4,0,0.7-0.2,0.9-0.5l2.9-5C15.8,10.2,15.8,9.8,15.6,9.5z M9,13c-1.7,0-3-1.3-3-3s1.3-3,3-3s3,1.3,3,3
  S10.7,13,9,13z"/>
</svg>
