<svg xmlns="http://www.w3.org/2000/svg" width="270" height="270" fill="none">
  <path fill="url(#B)" d="M0 0h270v270H0z"/>
  <defs>
    <filter id="A" color-interpolation-filters="sRGB" filterUnits="userSpaceOnUse" height="270" width="270">
      <feDropShadow dx="0" dy="1" stdDeviation="2" flood-opacity=".225" width="200%" height="200%"/>
    </filter>
  </defs>
  <svg width="100" height="60" viewBox="-15 -30 105 90" fill="none" xmlns="http://www.w3.org/2000/svg">
    <rect x="30" width="15" height="15" fill="#F4FCFF"/>
    <rect x="30" y="15" width="15" height="15" fill="#F4FCFF"/>
    <rect x="30" y="30" width="15" height="15" fill="#F4FCFF"/>
    <rect x="45" width="15" height="15" fill="#F4FCFF"/>
    <rect x="60" y="15" width="15" height="15" fill="#F4FCFF"/>
    <rect x="45" y="30" width="15" height="15" fill="#F4FCFF"/>
    <rect x="30" y="45" width="15" height="15" fill="#F4FCFF"/>
    <rect x="15" y="45" width="15" height="15" fill="#F4FCFF"/>
    <rect x="15" y="15" width="15" height="15" fill="#F4FCFF"/>
    <rect y="45" width="15" height="15" fill="#F4FCFF"/>
    <rect x="15" y="30" width="15" height="15" transform="rotate(90 15 30)" fill="#F4FCFF"/>
  </svg>
  <defs>
    <linearGradient id="B" x1="0" y1="0" x2="270" y2="270" gradientUnits="userSpaceOnUse">
      <stop stop-color="#ffafbd"/>
      <stop offset="1" stop-color="#4989a7" stop-opacity=".99"/>
    </linearGradient>
  </defs>
  <text x="32.5" y="231" font-size="27" fill="#fff" filter="url(#A)" font-family="georgia" font-weight="bold">vitalik.offline</text>
</svg>
